<svg width="24" height="24" viewBox="0 0 24 24" fill="none" xmlns="http://www.w3.org/2000/svg">
<mask id="mask0" mask-type="alpha" maskUnits="userSpaceOnUse" x="3" y="3" width="18" height="18">
<path fill-rule="evenodd" clip-rule="evenodd" d="M10.6719 4.61328L11.5391 3.74609C11.9062 3.37891 12.5 3.37891 12.8633 3.74609L20.457 11.3359C20.8242 11.7031 20.8242 12.2969 20.457 12.6602L12.8633 20.2539C12.4961 20.6211 11.9023 20.6211 11.5391 20.2539L10.6719 19.3867C10.3008 19.0156 10.3086 18.4102 10.6875 18.0469L15.3945 13.5625H4.16797C3.64844 13.5625 3.23047 13.1445 3.23047 12.625V11.375C3.23047 10.8555 3.64844 10.4375 4.16797 10.4375H15.3945L10.6875 5.95312C10.3047 5.58984 10.2969 4.98438 10.6719 4.61328Z" fill="white"/>
</mask>
<g mask="url(#mask0)">
<rect width="24" height="24" fill="#0019FF"/>
</g>
</svg>
