<svg width="43" height="43" viewBox="0 0 43 43" fill="none" xmlns="http://www.w3.org/2000/svg">
<g clip-path="url(#clip0)">
<path d="M41.5694 9.8507C40.711 8.95146 39.5257 8.42009 38.1768 8.42009H31.3916V8.33834C31.3916 7.31647 30.9829 6.33549 30.288 5.68149C29.5932 4.98663 28.653 4.57788 27.6312 4.57788H15.3688C14.3061 4.57788 13.366 4.98663 12.6711 5.68149C11.9762 6.37636 11.5675 7.31647 11.5675 8.33834V8.42009H4.82319C3.47433 8.42009 2.28897 8.95146 1.43061 9.8507C0.572243 10.7091 0 11.9353 0 13.2433V33.5988C0 34.9477 0.531369 36.133 1.43061 36.9914C2.28897 37.8497 3.51521 38.422 4.82319 38.422H38.1768C39.5257 38.422 40.711 37.8906 41.5694 36.9914C42.4278 36.133 43 34.9068 43 33.5988V13.2433C43 11.8944 42.4686 10.7091 41.5694 9.8507ZM40.8745 33.5988H40.8337C40.8337 34.3345 40.5475 34.9885 40.057 35.479C39.5665 35.9695 38.9125 36.2556 38.1768 36.2556H4.82319C4.08745 36.2556 3.43346 35.9695 2.94297 35.479C2.45247 34.9885 2.16635 34.3345 2.16635 33.5988V13.2433C2.16635 12.5075 2.45247 11.8535 2.94297 11.3631C3.43346 10.8726 4.08745 10.5864 4.82319 10.5864H12.712C13.3251 10.5864 13.8156 10.0959 13.8156 9.48282V8.29746C13.8156 7.84784 13.9791 7.4391 14.2652 7.15298C14.5513 6.86685 14.9601 6.70336 15.4097 6.70336H27.6312C28.0808 6.70336 28.4895 6.86685 28.7757 7.15298C29.0618 7.4391 29.2253 7.84784 29.2253 8.29746V9.48282C29.2253 10.0959 29.7158 10.5864 30.3289 10.5864H38.2177C38.9534 10.5864 39.6074 10.8726 40.0979 11.3631C40.5884 11.8535 40.8745 12.5075 40.8745 13.2433V33.5988Z" fill="white"/>
<path d="M21.5004 13.366C18.721 13.366 16.1868 14.5105 14.3883 16.3089C12.5489 18.1483 11.4453 20.6416 11.4453 23.4211C11.4453 26.2006 12.5898 28.7348 14.3883 30.5333C16.2276 32.3726 18.721 33.4762 21.5004 33.4762C24.2799 33.4762 26.8141 32.3318 28.6126 30.5333C30.452 28.6939 31.5556 26.2006 31.5556 23.4211C31.5556 20.6416 30.4111 18.1074 28.6126 16.3089C26.8141 14.5105 24.2799 13.366 21.5004 13.366ZM27.0594 29.0209C25.6288 30.4107 23.6668 31.3099 21.5004 31.3099C19.3341 31.3099 17.3721 30.4107 15.9415 29.0209C14.5109 27.5903 13.6525 25.6283 13.6525 23.462C13.6525 21.2956 14.5518 19.3337 15.9415 17.903C17.3721 16.4724 19.3341 15.6141 21.5004 15.6141C23.6668 15.6141 25.6288 16.5133 27.0594 17.903C28.49 19.3337 29.3484 21.2956 29.3484 23.462C29.3892 25.6283 28.49 27.5903 27.0594 29.0209Z" fill="white"/>
<path d="M36.0517 17.3307C37.1578 17.3307 38.0545 16.4339 38.0545 15.3278C38.0545 14.2217 37.1578 13.325 36.0517 13.325C34.9455 13.325 34.0488 14.2217 34.0488 15.3278C34.0488 16.4339 34.9455 17.3307 36.0517 17.3307Z" fill="white"/>
</g>
<defs>
<clipPath id="clip0">
<rect width="43" height="43" fill="white"/>
</clipPath>
</defs>
</svg>
