<svg width="121" height="121" viewBox="0 0 121 121" fill="none" xmlns="http://www.w3.org/2000/svg">
<path d="M119.228 57.323C117.896 56.9567 116.765 57.7768 116.311 58.9797C115.53 61.0447 112.594 62.2798 110.47 62.5568C107.271 62.9741 104.153 61.5732 101.327 60.262C97.9737 58.707 94.5179 57.2228 90.7484 57.2545C86.9554 57.2864 83.2526 58.8017 80.1635 60.932C76.6862 63.3298 73.8928 66.4588 71.1597 69.6433C70.3259 70.6148 70.2051 72.0432 71.1597 72.9977C72.0133 73.8513 73.6763 73.974 74.5141 72.9977C78.9027 67.8836 84.6868 61.1371 92.23 62.0657C95.7914 62.504 98.9814 64.4916 102.25 65.8183C105.61 67.1822 109.296 67.8266 112.857 66.8908C116.387 65.9629 119.568 63.7237 120.885 60.2405C121.338 59.0423 120.382 57.6399 119.228 57.323Z" fill="#0019FF"/>
<path d="M48.8084 32.272C51.051 29.1662 53.4412 25.8489 54.1237 21.9901C54.7857 18.2469 53.8174 14.4772 51.7323 11.3256C49.3274 7.69083 45.8369 5.07515 42.3914 2.49917C41.3646 1.73158 39.7412 2.33256 39.1462 3.34996C38.4377 4.56137 38.968 5.82573 39.9972 6.59521C45.2985 10.5587 51.9277 16.0732 48.7397 23.4534C45.9082 30.0078 38.5414 35.2798 39.4624 43.141C39.9062 46.9289 42.1539 50.3537 45.9834 51.3657C48.938 52.1463 50.1981 47.5717 47.2447 46.7911C44.8518 46.1589 43.9068 43.5449 44.1625 41.2525C44.5342 37.924 46.902 34.9125 48.8084 32.272Z" fill="#0019FF"/>
<path d="M82.8545 38.0325C82.4698 34.8794 80.685 32.0236 78.0181 30.289C76.532 29.3227 74.9153 28.8141 73.2752 28.6839C74.0863 26.0103 75.6044 23.5537 77.8238 21.8533C78.8391 21.0755 79.3788 19.8114 78.6748 18.608C78.0904 17.6088 76.4529 16.9731 75.4296 17.757C71.6431 20.6582 69.1142 24.8192 68.2081 29.4191C65.1119 30.5452 62.3585 32.8194 60.7718 35.6442C56.507 43.2362 59.2018 52.1115 63.4929 59.0133C65.1015 61.6006 69.2073 59.2215 67.5891 56.619C64.7903 52.1172 62.431 46.7202 63.6531 41.3165C64.2463 38.6942 65.7507 36.2364 67.8994 34.7809C68.1065 37.3838 68.8377 39.9539 70.1098 42.2359C71.8757 45.4031 75.2277 48.0325 78.9315 46.2615C81.9215 44.8319 83.2352 41.1544 82.8545 38.0325ZM77.5747 41.3035C76.2836 43.1457 74.9271 41.1369 74.2061 39.8412C73.2244 38.077 72.6933 36.0656 72.5986 34.0584C72.5889 33.8505 72.5877 33.6411 72.5863 33.4315C72.7033 33.4362 72.8203 33.4414 72.9384 33.4513C76.4146 33.7432 79.7891 38.1438 77.5747 41.3035Z" fill="#0019FF"/>
<path d="M92.4963 44.5096C89.4439 44.5096 89.4387 49.2536 92.4963 49.2536C95.5487 49.2534 95.5537 44.5096 92.4963 44.5096Z" fill="#0019FF"/>
<path d="M95.4552 37.6464C92.4028 37.6464 92.3979 42.3904 95.4552 42.3904C98.5076 42.3904 98.5128 37.6464 95.4552 37.6464Z" fill="#0019FF"/>
<path d="M100.092 43.6987C97.0395 43.6987 97.0346 48.4428 100.092 48.4428C103.144 48.4428 103.149 43.6987 100.092 43.6987Z" fill="#0019FF"/>
<path d="M21.1877 24.2874C18.1353 24.2874 18.1301 29.0315 21.1877 29.0315C24.2404 29.0315 24.2454 24.2874 21.1877 24.2874Z" fill="#0019FF"/>
<path d="M24.1466 17.4247C21.0942 17.4247 21.0893 22.1687 24.1466 22.1687C27.1993 22.1685 27.2045 17.4247 24.1466 17.4247Z" fill="#0019FF"/>
<path d="M28.7834 23.4769C25.7309 23.4769 25.726 28.2209 28.7834 28.2209C31.8358 28.2209 31.8407 23.4769 28.7834 23.4769Z" fill="#0019FF"/>
<path d="M66.9608 83.7615L35.4611 52.2618C34.9218 51.7228 34.1564 51.4753 33.4032 51.598C32.6505 51.7204 32.0022 52.1971 31.6617 52.8796L28.8295 58.551L0.249906 115.791C-0.205971 116.704 -0.026834 117.806 0.694912 118.528C1.15008 118.984 1.75697 119.223 2.37261 119.223C2.7323 119.223 3.09482 119.141 3.43136 118.973L66.3431 87.561C67.0256 87.2204 67.5025 86.5724 67.6247 85.8195C67.7473 85.0665 67.5001 84.3011 66.9608 83.7615ZM7.66706 111.556L17.918 91.0251L21.3791 104.709L7.66706 111.556ZM46.812 92.0106L42.7731 82.1673C42.2757 80.9554 40.8905 80.3759 39.6784 80.8731C38.4665 81.3704 37.887 82.756 38.3843 83.9679L42.5562 94.1354L25.7237 102.54L21.1659 84.5194L30.7414 65.3412L33.3763 71.7627C33.7527 72.6799 34.638 73.235 35.5715 73.235C35.8714 73.235 36.1763 73.1778 36.471 73.0568C37.6829 72.5596 38.2623 71.174 37.7651 69.9621L33.5563 59.7043L34.435 57.9448L61.2781 84.7879L46.812 92.0106Z" fill="#0019FF"/>
<path d="M111.218 78.7904C105.926 78.7904 101.621 83.0956 101.621 88.3874C101.621 93.6805 105.926 97.9869 111.218 97.9869C116.511 97.9869 120.818 93.6805 120.818 88.3874C120.818 83.0956 116.511 78.7904 111.218 78.7904ZM111.218 93.2428C108.542 93.2428 106.365 91.0646 106.365 88.3874C106.365 85.7115 108.542 83.5344 111.218 83.5344C113.895 83.5344 116.074 85.7115 116.074 88.3874C116.074 91.0646 113.896 93.2428 111.218 93.2428Z" fill="#0019FF"/>
<path d="M108.672 12.0119L99.1317 2.47178C98.6867 2.02701 98.0833 1.77698 97.4542 1.77698C96.8251 1.77698 96.222 2.02701 95.777 2.47202L86.2393 12.0121C85.3133 12.9383 85.3136 14.4401 86.2395 15.3666L95.7772 24.9043C96.2404 25.3675 96.8476 25.5991 97.4544 25.5991C98.0613 25.5991 98.6685 25.3675 99.1314 24.9045L108.672 15.3668C109.117 14.922 109.367 14.3187 109.367 13.6893C109.366 13.0602 109.116 12.4569 108.672 12.0119ZM97.4549 19.8729L91.2714 13.6891L97.4549 7.50392L103.64 13.6891L97.4549 19.8729Z" fill="#0019FF"/>
<path d="M37.8732 74.653C34.8208 74.653 34.8158 79.3971 37.8732 79.3971C40.9256 79.3971 40.9306 74.653 37.8732 74.653Z" fill="#0019FF"/>
</svg>
