<svg width="24" height="24" viewBox="0 0 24 24" fill="none" xmlns="http://www.w3.org/2000/svg">
<g clip-path="url(#clip0)">
<path d="M23.9594 3.74624C23.9584 2.74355 23.5671 1.80148 22.8574 1.09341C21.3937 -0.367041 19.014 -0.365027 17.5519 1.0989L2.44849 16.2631C1.95721 16.7541 1.58221 17.3618 1.36395 18.0208L1.34985 18.0636L0 23.9995L5.95239 22.6669L5.9967 22.6522C6.65588 22.434 7.26398 22.0594 7.75653 21.567L22.862 6.4009C23.5704 5.69155 23.9603 4.74874 23.9594 3.74624ZM3.30084 21.3405L2.66968 20.7089L3.12543 18.7043L5.31043 20.8906L3.30084 21.3405ZM21.5354 5.07778L6.87067 19.8015L4.21509 17.1443L14.2604 7.05862L15.7901 8.58828L17.1149 7.26351L15.5825 5.7311L17.0076 4.3005L18.5427 5.83566L19.8675 4.51089L18.3296 2.97299L18.8784 2.42202C19.6099 1.6896 20.8013 1.6885 21.5341 2.41964C21.8893 2.77413 22.0853 3.24581 22.0858 3.74771C22.0862 4.24978 21.8912 4.72164 21.5354 5.07778ZM9.85584 22.1057H23.9594V23.9792H7.98871L9.85584 22.1057Z" fill="#0019FF"/>
</g>
<defs>
<clipPath id="clip0">
<rect width="24" height="24" fill="white"/>
</clipPath>
</defs>
</svg>
