<svg width="28" height="32" viewBox="0 0 28 32" fill="none" xmlns="http://www.w3.org/2000/svg">
<g clip-path="url(#clip0)">
<path d="M27.7689 4.21395C27.4946 3.83137 27.0398 3.68949 26.6354 3.85975L0.95111 14.4882C0.437987 14.7017 0.0778189 15.2196 0.0109549 15.8397C-0.0552683 16.4569 0.182281 17.0557 0.627898 17.4004L4.29922 20.2702C4.65491 20.5483 5.11227 20.5782 5.49316 20.348L13.457 15.5391L7.25021 20.846C6.95883 21.0953 6.78473 21.4928 6.78473 21.9092V26.825C6.78473 27.3321 7.02762 27.7966 7.41855 28.0378C7.81012 28.279 8.28308 28.255 8.655 27.9742L11.4443 25.8556L14.1872 27.9972C14.4275 28.1858 14.7138 28.2851 15.0026 28.2851C15.1002 28.2851 15.1983 28.2736 15.2948 28.2506C15.68 28.1587 16.0207 27.8862 16.2299 27.5031L27.8503 5.56131C28.0765 5.13885 28.0441 4.59825 27.7689 4.21395ZM14.9413 26.3111L12.1007 24.0931C11.9031 23.9385 11.6754 23.8612 11.4479 23.8612C11.2253 23.8612 11.0025 23.9353 10.8075 24.0836L8.42621 25.8923V22.1866L19.3861 12.8155C19.8756 12.3969 19.9988 11.6352 19.6726 11.0437C19.3462 10.4522 18.6927 10.2524 18.1525 10.5787L4.98474 18.53L1.87952 16.1027L25.5312 6.31547L14.9413 26.3111Z" fill="#0019FF"/>
</g>
<defs>
<clipPath id="clip0">
<rect width="28" height="32" fill="white"/>
</clipPath>
</defs>
</svg>
