<svg width="28" height="28" viewBox="0 0 28 28" fill="none" xmlns="http://www.w3.org/2000/svg">
<g clip-path="url(#clip0)">
<path d="M24.023 3.97702C21.4582 1.41226 18.049 0 14.4217 0C14.4215 0 14.4206 0 14.4204 0C12.6264 0.000213623 10.8781 0.347565 9.22446 1.03265C7.57059 1.71774 6.0889 2.70831 4.82019 3.97702C2.25565 6.54156 0.843387 9.95142 0.843387 13.5783C0.843387 15.7412 1.36527 17.8907 2.35413 19.8058L0.0717805 26.326C-0.0890776 26.786 0.0247835 27.2859 0.369571 27.6304C0.610752 27.8718 0.928195 28 1.25461 28C1.39453 28 1.53595 27.9765 1.67395 27.9282L8.19416 25.6461C10.1093 26.6349 12.2588 27.1568 14.4217 27.1568C18.0486 27.1568 21.4582 25.7444 24.023 23.1798C26.5875 20.6153 28 17.2054 28 13.5785C28 9.95142 26.5877 6.54156 24.023 3.97702ZM22.8617 22.0186C20.6074 24.2731 17.6098 25.5145 14.4217 25.5145C12.4713 25.5145 10.5338 25.0321 8.81836 24.1191C8.50733 23.9538 8.13968 23.9254 7.80963 24.0409L1.88587 26.1141L3.95929 20.1904C4.07486 19.8599 4.04624 19.4922 3.88089 19.1814C2.96808 17.4665 2.48551 15.5289 2.48551 13.5783C2.48551 10.3902 3.72708 7.39264 5.98145 5.13828C8.2356 2.88412 11.2327 1.64255 14.4206 1.64212H14.4217C17.61 1.64212 20.6074 2.8837 22.8617 5.13828C25.1163 7.39264 26.3579 10.39 26.3579 13.5783C26.3579 16.7666 25.1163 19.7642 22.8617 22.0186Z" fill="#0019FF"/>
<path d="M19.4674 14.7913C18.8428 14.1667 17.8264 14.1667 17.2018 14.7913L16.5186 15.4745C14.8222 14.5501 13.4495 13.1774 12.5249 11.481L13.2081 10.7978C13.8329 10.1732 13.8329 9.15677 13.2081 8.53214L11.3671 6.69113C10.7424 6.0665 9.72602 6.0665 9.10139 6.69113L7.62867 8.16385C6.78507 9.00745 6.74299 10.4577 7.51011 12.2477C8.17618 13.8018 9.39512 15.5099 10.9424 17.0572C12.4897 18.6045 14.1978 19.8234 15.7519 20.4895C16.6023 20.8539 17.3759 21.0357 18.0443 21.0357C18.7828 21.0357 19.3929 20.8138 19.8357 20.3709L21.3084 18.898V18.8982C21.6112 18.5955 21.7778 18.1932 21.7778 17.7654C21.7778 17.3372 21.6112 16.935 21.3084 16.6325L19.4674 14.7913ZM18.6745 19.2097C18.4337 19.4504 17.6933 19.5348 16.399 18.9802C15.0322 18.3945 13.5067 17.299 12.1036 15.8959C10.7006 14.4929 9.60532 12.9676 9.01957 11.6008C8.46479 10.3065 8.54917 9.56586 8.78992 9.3251L10.2344 7.88058L12.0186 9.66498L11.1635 10.5203C10.7768 10.907 10.6835 11.4934 10.9315 11.9796C12.0558 14.1842 13.8154 15.9438 16.02 17.0681C16.5064 17.3161 17.0928 17.223 17.4795 16.8361L18.3346 15.981L20.119 17.7654L18.6745 19.2097Z" fill="#0019FF"/>
</g>
<defs>
<clipPath id="clip0">
<rect width="28" height="28" fill="white"/>
</clipPath>
</defs>
</svg>
